<svg width="82" height="14" viewBox="0 0 82 14" fill="none" xmlns="http://www.w3.org/2000/svg">
<path d="M0.306641 0.841797H2.16406L5.49219 4.18164L8.82031 0.841797H10.6777V10H8.82031V3.41406L5.49219 6.61914L2.16406 3.41406V10H0.306641V0.841797ZM13.8945 10.8672C14.0742 10.9844 14.2695 11.0879 14.4805 11.1777C14.6914 11.2676 14.9102 11.3418 15.1367 11.4004C15.3672 11.459 15.6016 11.502 15.8398 11.5293C16.0781 11.5605 16.3145 11.5762 16.5488 11.5762C17.3457 11.5762 17.959 11.4043 18.3887 11.0605C18.8223 10.7207 19.0391 10.209 19.0391 9.52539V9.29102C18.8867 9.39648 18.7148 9.49414 18.5234 9.58398C18.3359 9.66992 18.1328 9.74414 17.9141 9.80664C17.6992 9.86914 17.4707 9.91797 17.2285 9.95312C16.9902 9.98438 16.748 10 16.502 10C15.9746 10 15.502 9.92383 15.084 9.77148C14.6699 9.61523 14.3184 9.38867 14.0293 9.0918C13.7441 8.79102 13.5254 8.42188 13.373 7.98438C13.2207 7.54688 13.1445 7.04688 13.1445 6.48438V3.08594H14.873V6.00391C14.873 6.83984 15.0312 7.45703 15.3477 7.85547C15.668 8.25 16.1719 8.44727 16.8594 8.44727C17.3438 8.44727 17.7715 8.36328 18.1426 8.19531C18.5176 8.02344 18.8164 7.80469 19.0391 7.53906V3.08594H20.7734V9.20898C20.7734 9.86914 20.6797 10.4414 20.4922 10.9258C20.3047 11.4141 20.0312 11.8184 19.6719 12.1387C19.3164 12.459 18.8789 12.6973 18.3594 12.8535C17.8398 13.0137 17.25 13.0938 16.5898 13.0938C15.9453 13.0938 15.3438 13.0254 14.7852 12.8887C14.2266 12.752 13.7148 12.5664 13.25 12.332L13.8945 10.8672ZM26.3574 0.841797H28.3262L32.7559 10H30.8047L30.0723 8.45898H24.7227L24.0137 10H22.0566L26.3574 0.841797ZM29.3398 6.92969L27.3594 2.76953L25.4316 6.92969H29.3398ZM35.0469 11.1719C35.2656 11.25 35.4883 11.3145 35.7148 11.3652C35.9414 11.4199 36.1602 11.4629 36.3711 11.4941C36.5859 11.5293 36.791 11.5527 36.9863 11.5645C37.1816 11.5801 37.3555 11.5879 37.5078 11.5879C37.9688 11.5879 38.3691 11.5312 38.709 11.418C39.0527 11.3086 39.3379 11.1602 39.5645 10.9727C39.7949 10.7852 39.9668 10.5664 40.0801 10.3164C40.1934 10.0703 40.25 9.80859 40.25 9.53125V9.23242C40.1016 9.33398 39.9277 9.43164 39.7285 9.52539C39.5293 9.61914 39.3105 9.70117 39.0723 9.77148C38.834 9.8418 38.5801 9.89844 38.3105 9.94141C38.0449 9.98438 37.7695 10.0059 37.4844 10.0059C36.918 10.0059 36.3945 9.92188 35.9141 9.75391C35.4336 9.58203 35.0176 9.34375 34.666 9.03906C34.3145 8.73047 34.0391 8.36133 33.8398 7.93164C33.6445 7.50195 33.5469 7.02539 33.5469 6.50195C33.5469 5.9668 33.6504 5.48242 33.8574 5.04883C34.0645 4.61133 34.3496 4.23828 34.7129 3.92969C35.0801 3.62109 35.5137 3.38281 36.0137 3.21484C36.5137 3.04688 37.0566 2.96289 37.6426 2.96289C37.8926 2.96289 38.1406 2.97852 38.3867 3.00977C38.6328 3.04102 38.8672 3.08398 39.0898 3.13867C39.3164 3.19336 39.5273 3.25977 39.7227 3.33789C39.9219 3.41211 40.0977 3.49414 40.25 3.58398V3.08594H41.9844V9.20898C41.9844 9.83789 41.8887 10.3945 41.6973 10.8789C41.5059 11.3633 41.2246 11.7695 40.8535 12.0977C40.4863 12.4297 40.0293 12.6797 39.4824 12.8477C38.9355 13.0195 38.3086 13.1055 37.6016 13.1055C37.3477 13.1055 37.084 13.0938 36.8105 13.0703C36.5371 13.0508 36.2617 13.0195 35.9844 12.9766C35.7109 12.9375 35.4395 12.8887 35.1699 12.8301C34.9043 12.7754 34.6484 12.7109 34.4023 12.6367L35.0469 11.1719ZM35.3691 6.48438C35.3691 6.76172 35.4238 7.02344 35.5332 7.26953C35.6465 7.51172 35.8066 7.72461 36.0137 7.9082C36.2207 8.08789 36.4707 8.23047 36.7637 8.33594C37.0566 8.4375 37.3867 8.48828 37.7539 8.48828C37.9922 8.48828 38.2285 8.4668 38.4629 8.42383C38.7012 8.37695 38.9277 8.3125 39.1426 8.23047C39.3613 8.14844 39.5645 8.04883 39.752 7.93164C39.9434 7.81445 40.1094 7.68359 40.25 7.53906V5.25977C40.0742 5.11914 39.8887 5 39.6934 4.90234C39.498 4.80469 39.2988 4.72461 39.0957 4.66211C38.8926 4.59961 38.6875 4.55469 38.4805 4.52734C38.2734 4.49609 38.0723 4.48047 37.877 4.48047C37.4785 4.48047 37.123 4.5332 36.8105 4.63867C36.502 4.74414 36.2402 4.88867 36.0254 5.07227C35.8145 5.25195 35.6523 5.46289 35.5391 5.70508C35.4258 5.94727 35.3691 6.20703 35.3691 6.48438ZM43.6309 6.51953C43.6309 6.05078 43.7266 5.60352 43.918 5.17773C44.1094 4.74805 44.3848 4.36914 44.7441 4.04102C45.1035 3.71289 45.543 3.45117 46.0625 3.25586C46.5859 3.06055 47.1797 2.96289 47.8438 2.96289C48.5039 2.96289 49.0977 3.0625 49.625 3.26172C50.1562 3.45703 50.6055 3.72656 50.9727 4.07031C51.3438 4.41406 51.627 4.81836 51.8223 5.2832C52.0215 5.74805 52.1211 6.24609 52.1211 6.77734C52.1211 6.84375 52.1191 6.91602 52.1152 6.99414C52.1152 7.06836 52.1113 7.13672 52.1035 7.19922H45.5645C45.6387 7.40625 45.7578 7.5957 45.9219 7.76758C46.0898 7.93945 46.2988 8.08789 46.5488 8.21289C46.7988 8.33789 47.0879 8.43555 47.416 8.50586C47.7441 8.57227 48.1074 8.60547 48.5059 8.60547C48.9043 8.60547 49.3008 8.56445 49.6953 8.48242C50.0898 8.39648 50.4668 8.28906 50.8262 8.16016L51.4121 9.48438C51.1855 9.58984 50.9551 9.68359 50.7207 9.76562C50.4902 9.84375 50.248 9.91016 49.9941 9.96484C49.7441 10.0156 49.4805 10.0547 49.2031 10.082C48.9297 10.1094 48.6406 10.123 48.3359 10.123C47.5586 10.123 46.877 10.0293 46.291 9.8418C45.7051 9.6543 45.2148 9.39844 44.8203 9.07422C44.4258 8.75 44.1289 8.36914 43.9297 7.93164C43.7305 7.49414 43.6309 7.02344 43.6309 6.51953ZM50.2812 5.8457C50.2188 5.6543 50.1211 5.47656 49.9883 5.3125C49.8594 5.14453 49.6973 5 49.502 4.87891C49.3066 4.75391 49.0801 4.65625 48.8223 4.58594C48.5645 4.51562 48.2812 4.48047 47.9727 4.48047C47.6445 4.48047 47.3457 4.51758 47.0762 4.5918C46.8066 4.66602 46.5703 4.76562 46.3672 4.89062C46.1641 5.01562 45.9941 5.16016 45.8574 5.32422C45.7246 5.48828 45.627 5.66211 45.5645 5.8457H50.2812ZM53.9902 3.08594H55.7246V3.67188C56.1855 3.41016 56.625 3.22656 57.043 3.12109C57.4648 3.01562 57.877 2.96289 58.2793 2.96289C58.8066 2.96289 59.2949 3.04102 59.7441 3.19727C60.1934 3.34961 60.582 3.57812 60.9102 3.88281C61.2383 4.1875 61.4941 4.56836 61.6777 5.02539C61.8652 5.47852 61.959 6.00391 61.959 6.60156V10H60.2305V6.88281C60.2305 6.50391 60.1758 6.16602 60.0664 5.86914C59.9609 5.56836 59.8066 5.31641 59.6035 5.11328C59.4043 4.90625 59.1602 4.75 58.8711 4.64453C58.5859 4.53516 58.2656 4.48047 57.9102 4.48047C57.7227 4.48047 57.5293 4.5 57.3301 4.53906C57.1348 4.57812 56.9414 4.63477 56.75 4.70898C56.5625 4.7793 56.3809 4.86914 56.2051 4.97852C56.0293 5.08398 55.8691 5.20508 55.7246 5.3418V10H53.9902V3.08594ZM63.5586 6.57227C63.5586 6.02148 63.6621 5.52539 63.8691 5.08398C64.0762 4.63867 64.3613 4.25977 64.7246 3.94727C65.0918 3.63086 65.5254 3.38867 66.0254 3.2207C66.5293 3.04883 67.0742 2.96289 67.6602 2.96289C67.9102 2.96289 68.1562 2.97852 68.3984 3.00977C68.6445 3.04102 68.8789 3.08398 69.1016 3.13867C69.3281 3.19336 69.5391 3.25977 69.7344 3.33789C69.9336 3.41211 70.1094 3.49414 70.2617 3.58398V0.279297H71.9961V10H70.2617V9.34961C70.1094 9.45508 69.9297 9.55469 69.7227 9.64844C69.5156 9.74219 69.293 9.82422 69.0547 9.89453C68.8164 9.96484 68.5684 10.0195 68.3105 10.0586C68.0566 10.1016 67.8047 10.123 67.5547 10.123C66.9688 10.123 66.4297 10.0371 65.9375 9.86523C65.4492 9.69336 65.0293 9.45117 64.6777 9.13867C64.3262 8.82617 64.0508 8.45312 63.8516 8.01953C63.6562 7.58203 63.5586 7.09961 63.5586 6.57227ZM65.3809 6.57227C65.3809 6.84961 65.4355 7.11133 65.5449 7.35742C65.6582 7.60352 65.8184 7.82031 66.0254 8.00781C66.2363 8.19141 66.4883 8.33789 66.7812 8.44727C67.0781 8.55273 67.4102 8.60547 67.7773 8.60547C68.0117 8.60547 68.2461 8.58398 68.4805 8.54102C68.7148 8.49414 68.9395 8.42969 69.1543 8.34766C69.373 8.26562 69.5762 8.16602 69.7637 8.04883C69.9551 7.93164 70.1211 7.80078 70.2617 7.65625V5.25977C70.0859 5.11914 69.9004 5 69.7051 4.90234C69.5098 4.80469 69.3105 4.72461 69.1074 4.66211C68.9043 4.59961 68.6992 4.55469 68.4922 4.52734C68.2852 4.49609 68.084 4.48047 67.8887 4.48047C67.4902 4.48047 67.1348 4.53516 66.8223 4.64453C66.5137 4.75 66.252 4.89648 66.0371 5.08398C65.8262 5.27148 65.6641 5.49219 65.5508 5.74609C65.4375 6 65.3809 6.27539 65.3809 6.57227ZM73.7949 7.82031C73.7949 7.48828 73.8672 7.18555 74.0117 6.91211C74.1562 6.63867 74.373 6.4043 74.6621 6.20898C74.9512 6.00977 75.3105 5.85742 75.7402 5.75195C76.1738 5.64258 76.6777 5.58789 77.252 5.58789C77.6777 5.58789 78.125 5.61914 78.5938 5.68164C79.0664 5.74414 79.5527 5.83984 80.0527 5.96875C80.0332 5.75 79.9668 5.54883 79.8535 5.36523C79.7402 5.17773 79.582 5.01758 79.3789 4.88477C79.1797 4.74805 78.9375 4.64258 78.6523 4.56836C78.3711 4.49414 78.0508 4.45703 77.6914 4.45703C77.4961 4.45703 77.2812 4.46875 77.0469 4.49219C76.8125 4.51562 76.5703 4.55078 76.3203 4.59766C76.0703 4.64453 75.8223 4.70312 75.5762 4.77344C75.334 4.84375 75.1074 4.92773 74.8965 5.02539L74.3691 3.60156C74.6309 3.50781 74.9102 3.42188 75.207 3.34375C75.5078 3.26562 75.8145 3.19922 76.127 3.14453C76.4395 3.08594 76.752 3.04102 77.0645 3.00977C77.377 2.97852 77.6797 2.96289 77.9727 2.96289C79.2656 2.96289 80.2266 3.29297 80.8555 3.95312C81.4844 4.61328 81.7988 5.625 81.7988 6.98828V10H80.0645V9.34961C79.8848 9.45508 79.6875 9.55469 79.4727 9.64844C79.2617 9.74219 79.0312 9.82422 78.7812 9.89453C78.5312 9.96484 78.2617 10.0195 77.9727 10.0586C77.6875 10.1016 77.3848 10.123 77.0645 10.123C76.5254 10.123 76.0508 10.0645 75.6406 9.94727C75.2344 9.83008 74.8945 9.66797 74.6211 9.46094C74.3477 9.25391 74.1406 9.01172 74 8.73438C73.8633 8.45312 73.7949 8.14844 73.7949 7.82031ZM75.623 7.76172C75.623 7.875 75.6523 7.98438 75.7109 8.08984C75.7695 8.19141 75.8633 8.2832 75.9922 8.36523C76.1211 8.44336 76.2852 8.50781 76.4844 8.55859C76.6875 8.60547 76.9316 8.62891 77.2168 8.62891C77.5215 8.62891 77.8164 8.60156 78.1016 8.54688C78.3867 8.49219 78.6523 8.41992 78.8984 8.33008C79.1445 8.24023 79.3672 8.13672 79.5664 8.01953C79.7656 7.90234 79.9316 7.78125 80.0645 7.65625V7.35156C79.7988 7.27734 79.5352 7.21484 79.2734 7.16406C79.0156 7.11328 78.7676 7.07422 78.5293 7.04688C78.2949 7.01562 78.0723 6.99414 77.8613 6.98242C77.6543 6.9707 77.4727 6.96484 77.3164 6.96484C76.9922 6.96484 76.7227 6.98633 76.5078 7.0293C76.293 7.07227 76.1191 7.13086 75.9863 7.20508C75.8535 7.27539 75.7598 7.35938 75.7051 7.45703C75.6504 7.55469 75.623 7.65625 75.623 7.76172Z" fill="white"/>
</svg>
